<svg version="1.1" id="Layer_1" xmlns="http://www.w3.org/2000/svg" xmlns:xlink="http://www.w3.org/1999/xlink" x="0px" y="0px" width="2664.062px" height="671.488px" viewBox="0 0 2664.062 671.488" enable-background="new 0 0 2664.062 671.488" xml:space="preserve">
<g>
	<path fill="none" d="M636.125,307.387c-30.133,0-49.703,20.035-54.125,55.098h99.867
		C681.844,335.059,667.703,307.387,636.125,307.387z"></path>
	<path fill="none" d="M961.391,311.781c-16.781,0-32.258,6.574-40.719,13.375V486.93c8.508,3.066,22.039,5.945,35.07,5.945
		c44.898,0,67.656-30.805,67.656-91.48C1023.398,339.418,1004.273,311.781,961.391,311.781z"></path>
	<path fill="none" d="M1659.57,311.789c-16.758,0-32.242,6.559-40.719,13.359v163.453c10.078,2.621,23.5,4.238,35.711,4.238
		c55.406,0,67.039-49.723,67.039-91.461C1721.602,341.098,1701.305,311.789,1659.57,311.789z"></path>
	<path fill="#202F4C" d="M2369.5,492.855c-47.273,0-73.297-30.699-73.297-86.453c0-64.93,23.164-96.504,70.773-96.504
		c24.234,0,45.555,4.504,67.023,14.125l4.445,2.012v-72.262l-2.078-0.75c-18.047-6.453-40.422-13.359-77.547-13.359
		c-96.266,0-156.055,63.891-156.055,166.738c0,99.957,57.82,157.297,158.578,157.297c29.836,0,56.82-5.145,80.234-15.293
		l1.875-0.816v-74.094l-4.75,2.879C2418.969,488.242,2399.555,492.855,2369.5,492.855z"></path>
	<path fill="#202F4C" d="M2095.711,106.176c-30.227,0-53.914,22.578-53.914,51.426c0,29.172,23.688,52.031,53.914,52.031
		c29.883,0,53.297-22.859,53.297-52.031C2149.008,128.754,2125.594,106.176,2095.711,106.176z"></path>
	<rect x="2049.938" y="244.68" fill="#202F4C" width="90.898" height="314.012"></rect>
	<rect x="1877.656" y="126.242" fill="#202F4C" width="90.289" height="432.449"></rect>
	<path fill="#202F4C" d="M1688.398,239.672c-30.906,0-55.172,11.352-69.547,23.449V126.234h-90.273v415.156l2.016,0.801
		c33.836,13.266,80.867,21.523,122.727,21.523c99.359,0,163.555-65.203,163.555-166.102
		C1816.875,297.23,1770.047,239.672,1688.398,239.672z M1654.562,492.84c-12.211,0-25.633-1.617-35.711-4.238V325.148
		c8.477-6.801,23.961-13.359,40.719-13.359c41.734,0,62.031,29.309,62.031,89.59C1721.602,443.117,1709.969,492.84,1654.562,492.84z
		"></path>
	<path fill="#202F4C" d="M1364.266,473.699c-12.055,8.363-29.914,17.898-48.859,17.898c-32.477,0-45.727-15.07-45.727-51.973
		V244.672h-90.289V452.16c0,72.969,36.203,111.539,104.68,111.539c30.25,0,57.617-8.805,81.445-26.211v21.184h88.391v-314h-89.641
		V473.699z"></path>
	<path fill="#202F4C" d="M990.844,239.656c-31.891,0-56.43,11.613-70.172,23.328V244.68h-90.289v426.809h90.289V555.797
		c14.266,5.262,31.922,7.918,52.609,7.918c85.633,0,145.43-68.305,145.43-166.082
		C1118.711,295.758,1073.305,239.656,990.844,239.656z M955.742,492.875c-13.031,0-26.562-2.879-35.07-5.945V325.156
		c8.461-6.801,23.938-13.375,40.719-13.375c42.883,0,62.008,27.637,62.008,89.613C1023.398,462.07,1000.641,492.875,955.742,492.875
		z"></path>
	<path fill="#202F4C" d="M636.125,239.664c-103.047,0-149.172,81.516-149.172,162.344c0,104.27,57.641,161.691,162.328,161.691
		c34.766,0,69.672-6.285,98.32-17.746l1.992-0.801V474.16l-4.484,2.043c-15.109,6.914-46.875,18.527-89.555,18.527
		c-50.484,0-74.125-23.789-76.32-77.055h188.734l0.383-2.691c1.266-8.805,1.93-21.387,1.93-29.273
		C770.281,258.633,686.227,239.664,636.125,239.664z M582,362.484c4.422-35.062,23.992-55.098,54.125-55.098
		c31.578,0,45.719,27.672,45.742,55.098H582z"></path>
	<path fill="#202F4C" d="M334.625,411.254c-3.016,12.023-5.266,22.973-7.445,33.582c-1.078,5.195-2.109,10.234-3.18,15.086
		c-2.945-12.871-6.938-28.129-12.094-46.215l-46.391-166.703l-0.625-2.324h-91.93l22.914,73.344l-29.781,94.953
		c-5.633,17.965-9.578,32.863-13.102,47.152c-3.484-15.566-7.93-32.371-12.812-48.348L91.891,244.68H0l96.531,311.797l0.68,2.215
		h96.172L235.5,418.594l40.289,140.098h98.109l90.188-314.012h-88.133L334.625,411.254z"></path>
	<path fill="#008EBE" d="M2557.875,0.008V0h-122.016c-14.766,0-26.734,11.965-26.734,26.727v52.738
		c0,14.766,11.969,26.727,26.734,26.727h122.016v-0.016V0.008z"></path>
	<rect x="2557.875" y="0.008" fill="#202F4C" width="106.188" height="106.168"></rect>
	<path fill="#DC1A2F" d="M2557.875,106.191v0.008v121.988c0,14.762,11.969,26.742,26.711,26.742h52.742
		c14.766,0,26.734-11.98,26.734-26.742V106.199v-0.023h-106.188V106.191z"></path>
</g>
</svg>